<svg xmlns="http://www.w3.org/2000/svg" viewBox="0 0 240 240">

  <defs><linearGradient id="bg" x1="0" y1="0" x2="0" y2="1">
    <stop offset="0%" stop-color="#FFE4E1"/>
    <stop offset="100%" stop-color="#FFF0F5"/>
  </linearGradient></defs>
  <rect width="240" height="240" fill="url(#bg)"/>
  <ellipse cx="120" cy="228" rx="52" ry="9" fill="rgba(0,0,0,0.10)"/>


  <circle cx="120" cy="65" r="40" fill="#FDBCB4"/>
  <ellipse cx="120" cy="45" rx="36" ry="22" fill="#2C1A0E"/>
  <circle cx="80" cy="65" r="10" fill="#FDBCB4"/>
  <circle cx="160" cy="65" r="10" fill="#FDBCB4"/>
  <circle cx="107" cy="67" r="8" fill="white"/>
  <circle cx="133" cy="67" r="8" fill="white"/>
  <circle cx="108" cy="68" r="5" fill="#222"/>
  <circle cx="134" cy="68" r="5" fill="#222"/>
  <circle cx="108" cy="68" r="2.5" fill="#4A90D9"/>
  <circle cx="134" cy="68" r="2.5" fill="#4A90D9"/>
  <circle cx="108" cy="68" r="1.5" fill="#111"/>
  <circle cx="134" cy="68" r="1.5" fill="#111"/>
  <circle cx="110" cy="66" r="1.3" fill="white"/>
  <circle cx="136" cy="66" r="1.3" fill="white"/>
  <ellipse cx="120" cy="77" rx="3.5" ry="2.5" fill="#F08070"/>
  <path d="M 107 82 Q 120 93 133 82" stroke="#C1440E" stroke-width="2.5" fill="none" stroke-linecap="round"/>
  <circle cx="101" cy="79" r="8" fill="rgba(255,120,90,0.22)"/>
  <circle cx="139" cy="79" r="8" fill="rgba(255,120,90,0.22)"/>
  <!-- body pink party outfit -->
  <rect x="87" y="141" width="66" height="52" rx="13" fill="#E91E8C"/>
  <!-- party hat -->
  <polygon points="120,22 95,68 145,68" fill="#FF6B6B"/>
  <polygon points="120,22 95,68 145,68" fill="none" stroke="white" stroke-width="1.5" stroke-dasharray="4,3"/>
  <circle cx="120" cy="22" r="5" fill="#FFD700"/>
  <!-- left arm holds cake -->
  <rect x="54" y="141" width="35" height="14" rx="7" fill="#E91E8C"/>
  <circle cx="51" cy="145" r="11" fill="#FDBCB4"/>
  <!-- right arm up (6 fingers) -->
  <rect x="152" y="120" width="14" height="32" rx="7" fill="#E91E8C"/>
  <circle cx="158" cy="114" r="11" fill="#FDBCB4"/>
  <!-- "6" finger lines on hand -->
  <line x1="152" y1="108" x2="152" y2="102" stroke="#FDBCB4" stroke-width="4" stroke-linecap="round"/>
  <line x1="156" y1="107" x2="156" y2="100" stroke="#FDBCB4" stroke-width="4" stroke-linecap="round"/>
  <line x1="160" y1="108" x2="160" y2="101" stroke="#FDBCB4" stroke-width="4" stroke-linecap="round"/>
  <!-- cake in left hand -->
  <rect x="28" y="145" width="44" height="34" rx="5" fill="#FFFDE7" stroke="#FFD700" stroke-width="1.5"/>
  <rect x="28" y="145" width="44" height="10" rx="5" fill="#FF8CE8"/>
  <!-- 6 candles -->
  <rect x="34" y="130" width="4" height="17" rx="2" fill="#4A90D9"/>
  <rect x="40" y="128" width="4" height="19" rx="2" fill="#FF6B6B"/>
  <rect x="46" y="130" width="4" height="17" rx="2" fill="#69F0AE"/>
  <rect x="52" y="129" width="4" height="18" rx="2" fill="#FFD700"/>
  <rect x="58" y="131" width="4" height="16" rx="2" fill="#FF8CE8"/>
  <rect x="64" y="130" width="4" height="17" rx="2" fill="#FF6B6B"/>
  <!-- flames on candles -->
  <ellipse cx="36" cy="128" rx="3" ry="4" fill="#FFD700"/>
  <ellipse cx="42" cy="126" rx="3" ry="4" fill="#FF8C00"/>
  <ellipse cx="48" cy="128" rx="3" ry="4" fill="#FFD700"/>
  <ellipse cx="54" cy="127" rx="3" ry="4" fill="#FF8C00"/>
  <ellipse cx="60" cy="129" rx="3" ry="4" fill="#FFD700"/>
  <ellipse cx="66" cy="128" rx="3" ry="4" fill="#FF8C00"/>

  <rect x="92" y="189" width="22" height="20" rx="8" fill="#E91E8C"/>
  <rect x="126" y="189" width="22" height="20" rx="8" fill="#E91E8C"/>
  <ellipse cx="103" cy="209" rx="13" ry="6" fill="#333"/>
  <ellipse cx="137" cy="209" rx="13" ry="6" fill="#333"/>

</svg>