<svg xmlns="http://www.w3.org/2000/svg" viewBox="0 0 240 240">

  <defs><linearGradient id="bg" x1="0" y1="0" x2="0" y2="1">
    <stop offset="0%" stop-color="#7E57C2"/>
    <stop offset="100%" stop-color="#9575CD"/>
  </linearGradient></defs>
  <rect width="240" height="240" fill="url(#bg)"/>
  <ellipse cx="120" cy="228" rx="52" ry="9" fill="rgba(0,0,0,0.10)"/>

  <!-- police running LEFT side -->

  <circle cx="80" cy="80" r="40" fill="#FDBCB4"/>
  <ellipse cx="80" cy="60" rx="36" ry="22" fill="#2C1A0E"/>
  <circle cx="40" cy="80" r="10" fill="#FDBCB4"/>
  <circle cx="120" cy="80" r="10" fill="#FDBCB4"/>
  <circle cx="67" cy="82" r="8" fill="white"/>
  <circle cx="93" cy="82" r="8" fill="white"/>
  <circle cx="68" cy="83" r="5" fill="#222"/>
  <circle cx="94" cy="83" r="5" fill="#222"/>
  <circle cx="68" cy="83" r="2.5" fill="#4A90D9"/>
  <circle cx="94" cy="83" r="2.5" fill="#4A90D9"/>
  <circle cx="68" cy="83" r="1.5" fill="#111"/>
  <circle cx="94" cy="83" r="1.5" fill="#111"/>
  <circle cx="70" cy="81" r="1.3" fill="white"/>
  <circle cx="96" cy="81" r="1.3" fill="white"/>
  <ellipse cx="80" cy="92" rx="3.5" ry="2.5" fill="#F08070"/>
  <path d="M 67 97 Q 80 108 93 97" stroke="#C1440E" stroke-width="2.5" fill="none" stroke-linecap="round"/>
  <circle cx="61" cy="94" r="8" fill="rgba(255,120,90,0.22)"/>
  <circle cx="99" cy="94" r="8" fill="rgba(255,120,90,0.22)"/>
  <!-- police cap -->
  <rect x="44" y="50" width="72" height="12" rx="5" fill="#0D47A1"/>
  <rect x="36" y="60" width="88" height="7" rx="3" fill="#0D47A1"/>
  <polygon points="80,38 82.5,47 91.5,47 85,51.5 87.5,59.5 80,55 72.5,59.5 75,51.5 68.5,47 77.5,47" fill="#FFD700"/>
  <!-- body running -->
  <rect x="47" y="156" width="66" height="50" rx="13" fill="#1A237E"/>
  <!-- left arm back -->
  <rect x="20" y="165" width="30" height="13" rx="6" fill="#1A237E"/>
  <circle cx="18" cy="168" r="10" fill="#FDBCB4"/>
  <!-- right arm forward -->
  <rect x="115" y="148" width="30" height="13" rx="6" fill="#1A237E"/>
  <circle cx="148" cy="150" r="10" fill="#FDBCB4"/>
  <!-- legs running pose -->
  <rect x="50" y="200" width="20" height="24" rx="8" fill="#1A237E" transform="rotate(-15 50 200)"/>
  <rect x="78" y="200" width="20" height="24" rx="8" fill="#1A237E" transform="rotate(20 78 200)"/>
  <ellipse cx="58" cy="224" rx="12" ry="5" fill="#333" transform="rotate(-15 58 224)"/>
  <ellipse cx="88" cy="224" rx="12" ry="5" fill="#333" transform="rotate(20 88 224)"/>
  <!-- round villain right side -->
  <circle cx="185" cy="140" r="38" fill="#4CAF50"/>
  <!-- villain face (scared) -->
  <circle cx="174" cy="136" r="7" fill="white"/>
  <circle cx="196" cy="136" r="7" fill="white"/>
  <circle cx="175" cy="137" r="4" fill="#111"/>
  <circle cx="197" cy="137" r="4" fill="#111"/>
  <!-- scared O mouth -->
  <ellipse cx="185" cy="150" rx="8" ry="6" fill="white"/>
  <ellipse cx="185" cy="150" rx="5" ry="4" fill="#222"/>
  <!-- villain hat/mask -->
  <rect x="152" y="105" width="66" height="14" rx="5" fill="#222"/>
  <rect x="162" y="92" width="46" height="20" rx="5" fill="#333"/>
  <!-- handcuffs flying -->
  <circle cx="155" cy="168" r="8" fill="none" stroke="#888" stroke-width="3"/>
  <circle cx="170" cy="170" r="8" fill="none" stroke="#888" stroke-width="3"/>
  <line x1="163" y1="168" x2="162" y2="170" stroke="#888" stroke-width="3"/>
  <!-- speed lines -->
  <line x1="218" y1="135" x2="238" y2="135" stroke="white" stroke-width="2.5" stroke-linecap="round" opacity="0.5"/>
  <line x1="221" y1="148" x2="238" y2="148" stroke="white" stroke-width="2" stroke-linecap="round" opacity="0.4"/>

</svg>